


 
http://www.imdb.com/title/tt2226178/


An animated version of the classic Rudyard Kipling book about a boy who grows up in the jungle. 



Directors:
 Jun Falkenstein, Kevin Johnson 

Writers:
 Billy Frolick (screenplay), Rudyard Kipling (novel) 

Genres:
  Animation 

Country:
 India 

Language:
 English 




Format                                   : AVI
Format/Info                              : Audio Video Interleave
File size                                : 698 MiB
Duration                                 : 1h 2mn
Overall bit rate mode                    : Variable
Overall bit rate                         : 1 552 Kbps
Writing application                      : VirtualDubMod 1.5.10.2 (build 2540/release)
Writing library                          : VirtualDubMod build 2540/release

Video
ID                                       : 0
Format                                   : MPEG-4 Visual
Format profile                           : Advanced Simple@L5
Format settings, BVOP                    : 2
Format settings, QPel                    : No
Format settings, GMC                     : No warppoints
Format settings, Matrix                  : Default (H.263)
Muxing mode                              : Packed bitstream
Codec ID                                 : XVID
Codec ID/Hint                            : XviD
Duration                                 : 1h 2mn
Bit rate                                 : 1 415 Kbps
Width                                    : 640 pixels
Height                                   : 352 pixels
Display aspect ratio                     : 16:9
Frame rate                               : 23.976 fps
Color space                              : YUV
Chroma subsampling                       : 4:2:0
Bit depth                                : 8 bits
Scan type                                : Progressive
Compression mode                         : Lossy
Bits/(Pixel*Frame)                       : 0.262
Stream size                              : 636 MiB (91%)
Writing library                          : XviD 64

Audio
ID                                       : 1
Format                                   : MPEG Audio
Format version                           : Version 1
Format profile                           : Layer 3
Mode                                     : Joint stereo
Mode extension                           : MS Stereo
Codec ID                                 : 55
Codec ID/Hint                            : MP3
Duration                                 : 1h 2mn
Bit rate mode                            : Variable
Bit rate                                 : 128 Kbps
Channel(s)                               : 2 channels
Sampling rate                            : 48.0 KHz
Compression mode                         : Lossy
Stream size                              : 55.6 MiB (8%)
Alignment                                : Aligned on interleaves
Interleave, duration                     : 24 ms (0.58 video frame)
Interleave, preload duration             : 149 ms
Writing library                          : LAME3.98r
Encoding settings                        : -m j -V 4 -q 2 -lowpass 17 --abr 128





    	http://addpix.net/viewer.php?file=11399767488050426060.jpg
    	http://addpix.net/viewer.php?file=48792965100852949059.jpg
    	http://addpix.net/viewer.php?file=64791521477945952840.jpg
    	http://addpix.net/viewer.php?file=26243693308681819614.jpg
    	http://addpix.net/viewer.php?file=39077927268302363950.jpg